<svg preserveAspectRatio="none" width="100%" height="100%" overflow="visible" style="display: block;" viewBox="0 0 33.5 29.3449" fill="none" xmlns="http://www.w3.org/2000/svg">
<path id="Icon" d="M24.0539 8.01161C25.8501 9.68149 26.8591 11.946 26.8591 14.3072C26.8591 16.6685 25.8501 18.933 24.0539 20.6029M29.1079 4.17233C31.1198 6.86055 32.25 10.5061 32.25 14.3072C32.25 18.1084 31.1198 21.7539 29.1079 24.4422M14.9222 27.3224L9.51556 20.4251C9.13645 19.9415 8.55604 19.659 7.94152 19.659H3.25C2.14543 19.659 1.25 18.7636 1.25 17.659V10.9733C1.25 9.86875 2.14543 8.97332 3.25 8.97332H7.99978C8.58094 8.97332 9.13337 8.72053 9.51328 8.28073L14.9827 1.9491C16.1941 0.546839 18.4962 1.4035 18.4962 3.25651V26.0885C18.4962 27.989 16.0947 28.8181 14.9222 27.3224Z" stroke="var(--stroke-0, #F66B1E)" stroke-width="2.5" stroke-linecap="round" stroke-linejoin="round"/>
</svg>
