<svg preserveAspectRatio="none" width="100%" height="100%" overflow="visible" style="display: block;" viewBox="0 0 128 86" fill="none" xmlns="http://www.w3.org/2000/svg">
<g id="Group 38">
<rect id="Rectangle 2354" x="54" y="70" width="8" height="54" rx="4" transform="rotate(-180 54 70)" fill="url(#paint0_linear_265_149)"/>
<path id="Subtract" d="M20.5 23C31.8217 23.0001 41 32.1783 41 43.5C40.9999 54.8217 31.8217 63.9999 20.5 64C9.17826 64 6.08215e-05 54.8217 0 43.5C0 32.1782 9.17822 23 20.5 23ZM20.4736 31.6201C13.9273 31.6201 8.62012 36.9273 8.62012 43.4736C8.62013 50.02 13.9273 55.3271 20.4736 55.3271C27.0199 55.3271 32.3271 50.0199 32.3271 43.4736C32.3271 36.9273 27.02 31.6201 20.4736 31.6201Z" fill="url(#paint1_linear_265_149)"/>
<path id="Subtract_2" d="M98.5 51C108.165 51.0001 116 58.8351 116 68.5C116 78.1648 108.165 85.9999 98.5 86C88.8351 86 81.0001 78.1649 81 68.5C81 58.8351 88.8351 51 98.5 51ZM98.4775 58.3594C92.8892 58.3594 88.3594 62.8892 88.3594 68.4775C88.3594 74.0659 92.8892 78.5957 98.4775 78.5957C104.066 78.5957 108.596 74.0659 108.596 68.4775C108.596 62.8892 104.066 58.3594 98.4775 58.3594Z" fill="url(#paint2_linear_265_149)"/>
<rect id="Rectangle 2355" x="68" y="46.8286" width="8" height="60" rx="4" transform="rotate(-90 68 46.8286)" fill="url(#paint3_linear_265_149)"/>
<path id="Subtract_3" d="M98.5 0C108.165 5.15405e-05 116 7.8351 116 17.5C116 27.1648 108.165 34.9999 98.5 35C88.8351 35 81.0001 27.1649 81 17.5C81 7.83507 88.8351 0 98.5 0ZM98.4775 7.35938C92.8892 7.35938 88.3594 11.8892 88.3594 17.4775C88.3594 23.0659 92.8892 27.5957 98.4775 27.5957C104.066 27.5957 108.596 23.0659 108.596 17.4775C108.596 11.8892 104.066 7.35938 98.4775 7.35938Z" fill="url(#paint4_linear_265_149)"/>
</g>
<defs>
<linearGradient id="paint0_linear_265_149" x1="58" y1="70" x2="58" y2="124" gradientUnits="userSpaceOnUse">
<stop stop-color="#FC7706"/>
<stop offset="1" stop-color="#F66B1E"/>
</linearGradient>
<linearGradient id="paint1_linear_265_149" x1="20.5" y1="23" x2="20.5" y2="64" gradientUnits="userSpaceOnUse">
<stop stop-color="#FC7706"/>
<stop offset="1" stop-color="#F66B1E"/>
</linearGradient>
<linearGradient id="paint2_linear_265_149" x1="98.5" y1="51" x2="98.5" y2="86" gradientUnits="userSpaceOnUse">
<stop stop-color="#FC7706"/>
<stop offset="1" stop-color="#F66B1E"/>
</linearGradient>
<linearGradient id="paint3_linear_265_149" x1="72" y1="46.8286" x2="72" y2="106.829" gradientUnits="userSpaceOnUse">
<stop stop-color="#FC7706"/>
<stop offset="1" stop-color="#F66B1E"/>
</linearGradient>
<linearGradient id="paint4_linear_265_149" x1="98.5" y1="0" x2="98.5" y2="35" gradientUnits="userSpaceOnUse">
<stop stop-color="#FC7706"/>
<stop offset="1" stop-color="#F66B1E"/>
</linearGradient>
</defs>
</svg>
